<svg id="visual" viewBox="0 0 960 300" width="960" height="300" xmlns="http://www.w3.org/2000/svg" xmlns:xlink="http://www.w3.org/1999/xlink" version="1.1">
  <rect x="0" y="0" width="960" height="300" fill="transparent"></rect>
  <path d="M0 232L22.8 228C45.7 224 91.3 216 137 209.8C182.7 203.7 228.3 199.3 274 204.8C319.7 210.3 365.3 225.7 411.2 235.5C457 245.3 503 249.7 548.8 242C594.7 234.3 640.3 214.7 686 213.5C731.7 212.3 777.3 229.7 823 239.3C868.7 249 914.3 251 937.2 252L960 253L960 301L937.2 301C914.3 301 868.7 301 823 301C777.3 301 731.7 301 686 301C640.3 301 594.7 301 548.8 301C503 301 457 301 411.2 301C365.3 301 319.7 301 274 301C228.3 301 182.7 301 137 301C91.3 301 45.7 301 22.8 301L0 301Z" fill="#000000" stroke-linecap="round" stroke-linejoin="miter"></path>
</svg>
